<svg viewBox="0 0 100 100" fill="none" xmlns="http://www.w3.org/2000/svg">
  <!-- Background circle -->
  <circle cx="50" cy="50" r="50" fill="#FEF3C7"/>

  <!-- Face -->
  <circle cx="50" cy="45" r="18" fill="#FED7AA"/>

  <!-- Hair -->
  <path d="M32 40C32 30 40 22 50 22C60 22 68 30 68 40V48H32V40Z" fill="#78350F"/>

  <!-- Beard -->
  <path d="M38 53C40 58 45 60 50 60C55 60 60 58 62 53V48H38V53Z" fill="#78350F"/>

  <!-- Eyes -->
  <circle cx="43" cy="42" r="2" fill="#1F2937"/>
  <circle cx="57" cy="42" r="2" fill="#1F2937"/>

  <!-- Glasses -->
  <circle cx="43" cy="42" r="6" stroke="#1F2937" stroke-width="2" fill="none"/>
  <circle cx="57" cy="42" r="6" stroke="#1F2937" stroke-width="2" fill="none"/>
  <line x1="49" y1="42" x2="51" y2="42" stroke="#1F2937" stroke-width="2"/>

  <!-- Body/Clothing -->
  <path d="M32 63C32 58 40 55 50 55C60 55 68 58 68 63V80C68 85 63 90 50 90C37 90 32 85 32 80V63Z" fill="#3B82F6"/>

  <!-- Collar -->
  <rect x="45" y="58" width="10" height="15" fill="#DBEAFE"/>
</svg>
