<svg viewBox="0 0 100 100" fill="none" xmlns="http://www.w3.org/2000/svg">
  <!-- Background circle -->
  <circle cx="50" cy="50" r="50" fill="#DBEAFE"/>

  <!-- Face -->
  <circle cx="50" cy="45" r="18" fill="#FDE68A"/>

  <!-- Hair -->
  <path d="M32 38C32 28 40 20 50 20C60 20 68 28 68 38V45H32V38Z" fill="#1F2937"/>

  <!-- Eyes -->
  <circle cx="43" cy="42" r="2" fill="#1F2937"/>
  <circle cx="57" cy="42" r="2" fill="#1F2937"/>

  <!-- Smile -->
  <path d="M43 50Q50 54 57 50" stroke="#1F2937" stroke-width="2" stroke-linecap="round" fill="none"/>

  <!-- Body/Clothing -->
  <path d="M32 63C32 58 40 55 50 55C60 55 68 58 68 63V80C68 85 63 90 50 90C37 90 32 85 32 80V63Z" fill="#EC4899"/>

  <!-- Collar -->
  <path d="M40 60L50 65L60 60" stroke="#F0ABFC" stroke-width="3" stroke-linecap="round" stroke-linejoin="round"/>
</svg>
