<svg viewBox="0 0 64 64" fill="none" xmlns="http://www.w3.org/2000/svg">
  <!-- Money bag -->
  <path d="M32 16L24 20C24 20 20 22 20 28V42C20 48 24 52 32 52C40 52 44 48 44 42V28C44 22 40 20 40 20L32 16Z" stroke="#eb419d" stroke-width="3" stroke-linejoin="round"/>
  <!-- Bag tie -->
  <ellipse cx="32" cy="20" rx="6" ry="4" stroke="#eb419d" stroke-width="3"/>
  <!-- Dollar sign -->
  <path d="M32 26V46M28 30C28 28 30 26 32 26C34 26 36 28 36 30C36 32 34 33 32 33C30 33 28 34 28 36C28 38 30 40 32 40C34 40 36 38 36 36" stroke="#eb419d" stroke-width="2.5" stroke-linecap="round"/>
</svg>
