<svg viewBox="0 0 64 64" fill="none" xmlns="http://www.w3.org/2000/svg">
  <!-- Elderly person with cane -->
  <circle cx="28" cy="16" r="8" stroke="#6995fb" stroke-width="3"/>
  <!-- Body slightly bent -->
  <path d="M28 24C28 24 26 32 24 40" stroke="#6995fb" stroke-width="3" stroke-linecap="round"/>
  <path d="M28 24C28 24 32 30 34 36" stroke="#6995fb" stroke-width="3" stroke-linecap="round"/>
  <!-- Legs -->
  <path d="M24 40L22 52" stroke="#6995fb" stroke-width="3" stroke-linecap="round"/>
  <path d="M24 40L28 52" stroke="#6995fb" stroke-width="3" stroke-linecap="round"/>
  <!-- Walking cane -->
  <path d="M34 36L34 54" stroke="#6995fb" stroke-width="3" stroke-linecap="round"/>
  <path d="M34 36C34 36 36 34 38 34C40 34 42 36 42 36" stroke="#6995fb" stroke-width="2.5" stroke-linecap="round"/>
  <!-- Care heart symbol -->
  <path d="M50 20C50 20 48 18 46 18C44 18 43 19 43 21C43 23 44 24 46 26L50 30L54 26C56 24 57 23 57 21C57 19 56 18 54 18C52 18 50 20 50 20Z" stroke="#6995fb" stroke-width="2.5" stroke-linejoin="round" fill="none"/>
</svg>
